<?xml version="1.0"?>
<svg width="263" height="393" xmlns="http://www.w3.org/2000/svg" xmlns:svg="http://www.w3.org/2000/svg" clip-rule="evenodd" fill-rule="evenodd" version="1.1">
 <g class="layer">
  <title>Layer 1</title>
  <g id="svg_1">
   <path d="m123.5,6.5c25.346,-0.2469 49.013,5.9198 71,18.5c8.958,5.3039 17.624,10.9705 26,17c4.518,6.1823 9.685,11.6823 15.5,16.5c4.34,9.0349 8.674,18.0349 13,27c7.667,16.996 10,34.663 7,53c-2.695,11.748 -6.361,23.081 -11,34c-0.946,2.812 -2.613,5.145 -5,7c-3.38,9.821 -7.713,19.155 -13,28c-6.77,9.76 -13.103,19.76 -19,30c-1.302,4.775 -2.802,9.441 -4.5,14c0.699,12.157 1.365,24.324 2,36.5c-0.333,1.167 -0.667,2.333 -1,3.5c-4.825,4.657 -9.825,9.157 -15,13.5c-5.585,2.377 -11.085,4.877 -16.5,7.5c0.64,19.331 0.474,38.664 -0.5,58c-2.513,4.358 -5.513,8.358 -9,12c-5.559,1.57 -11.226,2.57 -17,3c0,1.333 0,2.667 0,4c-13.667,0 -27.333,0 -41,0c0,-1.333 0,-2.667 0,-4c-5.7742,-0.43 -11.4409,-1.43 -17,-3c-3.4866,-3.642 -6.4866,-7.642 -9,-12c-0.9737,-19.336 -1.1404,-38.669 -0.5,-58c-5.4151,-2.623 -10.9151,-5.123 -16.5,-7.5c-3.8135,-2.647 -7.1469,-5.813 -10,-9.5c-0.3333,-1.667 -0.6667,-3.333 -1,-5c0.5955,-11.682 1.2622,-23.348 2,-35c-1.4905,-8.311 -4.9905,-15.644 -10.5,-22c-3.3978,-7.826 -7.7312,-15.159 -13,-22c-2.8409,-6.594 -6.1742,-12.928 -10,-19c-0.6667,-1.333 -1.3333,-1.333 -2,0c-1.3333,-2 -2.6667,-4 -4,-6c-2.844,-11.709 -5.84401,-23.376 -9,-35c-0.70259,-3.213 -0.53593,-6.379 0.5,-9.5c-0.45043,-1.285 -1.1171,-2.452 -2,-3.5c1.67998,-15.957 3.17998,-31.957 4.5,-48c2.0625,-11.5039 5.5625,-22.5039 10.5,-33c2.3377,-3.2033 5.0043,-6.0367 8,-8.5c-0.3333,-0.3333 -0.6667,-0.6667 -1,-1c1.3491,-0.7724 2.1824,-1.9391 2.5,-3.5c24.0898,-14.1327 49.2565,-25.6327 75.5,-34.5c6.795,-1.26264 13.462,-2.42931 20,-3.5z" fill="#3f3f3f" id="svg_2" opacity="0.982"/>
  </g>
  <g id="svg_3">
   <path d="m82.5,328.5c-0.6981,-5.967 -1.1981,-11.967 -1.5,-18c-5.4151,-2.623 -10.9151,-5.123 -16.5,-7.5c-2.9272,-2.382 -5.7605,-4.882 -8.5,-7.5c-1.8318,-12.965 -1.9985,-25.965 -0.5,-39c-0.4161,-6 -1.9161,-11.667 -4.5,-17c-5.8969,-10.24 -12.2302,-20.24 -19,-30c-5.7124,-10.723 -11.3791,-21.389 -17,-32c-1.5792,-10.571 -3.9126,-20.905 -7,-31c-0.74695,-4.976 -1.24695,-9.976 -1.5,-15c1.35001,-12.983 2.51667,-25.983 3.5,-39c1.8687,-9.601 4.5354,-18.9343 8,-28c2.4251,-6.3415 6.4251,-11.3415 12,-15c0.2735,-1.8289 1.1068,-3.3289 2.5,-4.5c22.8468,-13.7606 46.8468,-24.7606 72,-33c23.188,-5.59303 45.855,-3.92636 68,5c26.202,10.2386 47.702,26.4053 64.5,48.5c8.757,15.6003 14.757,32.2669 18,50c0.993,15.686 -1.674,30.686 -8,45c-1,0.667 -2,1.333 -3,2c-0.667,2.667 -1.333,5.333 -2,8c-5.74,10.318 -10.907,20.485 -15.5,30.5c-0.727,1.399 -1.227,2.899 -1.5,4.5c-6.77,9.76 -13.103,19.76 -19,30c-4.731,11.719 -5.898,23.886 -3.5,36.5c0.05,6.553 -0.45,13.053 -1.5,19.5c-4.5,3.833 -9,7.667 -13.5,11.5c-5.585,2.377 -11.085,4.877 -16.5,7.5c-0.499,5.991 -0.666,11.991 -0.5,18c-29.333,0 -58.667,0 -88,0z" fill="#ffec3d" id="svg_4"/>
  </g>
  <g id="svg_5">
   <path d="m82.5,45.5c31.992,0.5304 63.992,1.3638 96,2.5c20.631,4.2354 34.131,16.4021 40.5,36.5c2.109,15.3799 1.776,30.713 -1,46c-3.108,10.051 -8.608,18.551 -16.5,25.5c-7.167,6.832 -15.167,12.499 -24,17c-20.085,6.938 -40.752,9.438 -62,7.5c0,29.333 0,58.667 0,88c-11.353,0.332 -22.6862,-0.001 -34,-1c0.9924,-74.107 1.3257,-148.107 1,-222z" fill="#3f3f3f" id="svg_6"/>
  </g>
  <g id="svg_7">
   <path d="m65.5,46.5c4.6667,0 9.3333,0 14,0c0,75 0,150 0,225c37.333,0 74.667,0 112,0c0,4.333 0,8.667 0,13c-42,0 -84,0 -126,0c0,-79.333 0,-158.667 0,-238z" fill="#3f3f3f" id="svg_8"/>
  </g>
  <g id="svg_15">
   <path d="m116.5,71.5c11.338,-0.1665 22.672,0.0001 34,0.5c9.47,1.5995 18.304,4.7662 26.5,9.5c9.895,15.1625 11.228,31.162 4,48c-8.236,14.544 -20.736,22.711 -37.5,24.5c-8.948,1.307 -17.948,1.807 -27,1.5c0,-28 0,-56 0,-84z" fill="#ffec3d" id="svg_16"/>
  </g>
  <g id="svg_17">
   <path d="m82.5,328.5c28.981,1.992 58.314,2.659 88,2c0.167,12.338 0,24.671 -0.5,37c-1.648,3.278 -3.481,6.445 -5.5,9.5c-5.549,2.654 -11.382,4.487 -17.5,5.5c-14,-1.333 -28,-1.333 -42,0c-6.1177,-1.013 -11.9511,-2.846 -17.5,-5.5c-2.0192,-3.055 -3.8525,-6.222 -5.5,-9.5c-0.8269,-13.173 -0.6602,-26.173 0.5,-39z" fill="#bfbfbf" id="svg_18"/>
  </g>
  <g id="svg_19">
   <path d="m90.5,338.5c23.676,-0.333 47.343,0 71,1c-11.833,0.333 -23.667,0.667 -35.5,1c-12.186,-0.001 -24.019,-0.668 -35.5,-2z" fill="#3f3f3f" id="svg_20"/>
  </g>
  <g id="svg_21">
   <path d="m93.5,345.5c21.677,-0.333 43.344,0 65,1c-10.833,0.333 -21.667,0.667 -32.5,1c-11.188,-0.001 -22.021,-0.668 -32.5,-2z" fill="#3f3f3f" id="svg_22"/>
  </g>
  <g id="svg_23">
   <path d="m93.5,350.5c21.677,-0.333 43.344,0 65,1c-10.833,0.333 -21.667,0.667 -32.5,1c-11.188,-0.001 -22.021,-0.668 -32.5,-2z" fill="#3f3f3f" id="svg_24"/>
  </g>
  <g id="svg_25">
   <path d="m93.5,358.5c21.677,-0.333 43.344,0 65,1c-10.833,0.333 -21.667,0.667 -32.5,1c-11.188,-0.001 -22.021,-0.668 -32.5,-2z" fill="#3f3f3f" id="svg_26"/>
  </g>
  <g id="svg_27">
   <path d="m92.5,364.5c22.343,-0.333 44.677,0 67,1c-11.167,0.333 -22.333,0.667 -33.5,1c-11.521,-0.001 -22.687,-0.668 -33.5,-2z" fill="#3f3f3f" id="svg_28"/>
  </g>
  <g id="svg_29">
   <path d="m93.5,371.5c21.677,-0.333 43.344,0 65,1c-10.833,0.333 -21.667,0.667 -32.5,1c-11.188,-0.001 -22.021,-0.668 -32.5,-2z" fill="#3f3f3f" id="svg_30"/>
  </g>
 </g>

</svg>